#!OML:ASF H:\Pregnant\Project 1\Capture day 1\Session 1\femalepreg.ASF
:FULLY-SPECIFIED
:DEGREES
1940
root 11.4659 15.3889 4.035 18.888 -16.207 4.5493
lowerback -13.9902 -0.107149 -8.84789
upperback -6.95709 0.937935 -3.23221
thorax 0.356437 0.600912 1.71208
lowerneck -26.1046 0.487486 1.29551
upperneck 18.8472 -0.562944 2.94361
head 10.3276 0.219346 0.757939
rclavicle -5.94149e-014 5.08889e-014
rhumerus -36.204 12.453 -92.2796
rradius 36.382
rwrist -32.076
rhand -21.9704 -42.2882
rfingers 7.12502
rthumb 4.43737 -72.2217
lclavicle -5.94149e-014 5.08889e-014
lhumerus -40.1996 -33.5874 93.3935
lradius 75.9154
lwrist 62.8711
lhand -36.009 16.0451
lfingers 7.12502
lthumb -9.11853 45.828
rfemur -54.2546 15.9648 7.12408
rtibia 64.2585
rfoot -17.7263 -15.5232
rtoes -11.43
lfemur -31.183 4.44975 -35.245
ltibia 25.6395
lfoot -13.5595 -17.9043
ltoes 8.05758
1941
root 11.4521 15.3958 4.08255 18.9627 -15.9426 4.43467
lowerback -14.0187 -0.215332 -8.80307
upperback -6.92672 0.794368 -3.08364
thorax 0.416377 0.528474 1.82431
lowerneck -26.0911 0.560017 1.34473
upperneck 18.7554 -0.440883 2.79425
head 10.2894 0.258438 0.715065
rclavicle -2.58265e-014 -1.03368e-014
rhumerus -37.0142 11.8473 -92.3613
rradius 33.7511
rwrist -29.8726
rhand -22.0576 -42.4063
rfingers 7.12502
rthumb 4.35316 -72.3415
lclavicle -2.58265e-014 -1.03368e-014
lhumerus -40.4002 -33.4095 93.4783
lradius 75.8363
lwrist 62.9621
lhand -36.0726 16.09
lfingers 7.12502
lthumb -9.17985 45.8702
rfemur -54.9811 16.5656 6.70036
rtibia 62.8993
rfoot -17.514 -16.1401
rtoes -10.6503
lfemur -30.9007 4.23328 -35.0381
ltibia 25.4649
lfoot -13.7259 -17.8243
ltoes 7.67099
1942
root 11.4382 15.4036 4.13067 19.0363 -15.684 4.33015
lowerback -14.0424 -0.322115 -8.77805
upperback -6.9064 0.65331 -2.92408
thorax 0.462616 0.458632 1.959
lowerneck -26.0546 0.628904 1.38318
upperneck 18.6583 -0.31736 2.63708
head 10.2455 0.296266 0.671222
rclavicle 4.80655e-014 -6.2816e-014
rhumerus -37.7856 11.0807 -92.2697
rradius 31.126
rwrist -27.1923
rhand -21.8163 -42.2319
rfingers 7.12502
rthumb 4.58613 -72.1622
lclavicle 4.80655e-014 -6.2816e-014
lhumerus -40.6333 -33.2132 93.5988
lradius 75.7708
lwrist 63.0838
lhand -36.1341 16.1583
lfingers 7.12502
lthumb -9.23921 45.9358
rfemur -55.6789 17.1572 6.24527
rtibia 61.4965
rfoot -17.2519 -16.5681
rtoes -9.96597
lfemur -30.5866 4.04244 -34.8466
ltibia 25.2287
lfoot -13.8558 -17.7804
ltoes 7.37338
1943
root 11.4242 15.4122 4.17932 19.1092 -15.4318 4.23414
lowerback -14.0714 -0.431469 -8.77415
upperback -6.89239 0.511108 -2.74844
thorax 0.504902 0.389219 2.12189
lowerneck -26.0185 0.696527 1.39455
upperneck 18.5765 -0.18788 2.48716
head 10.2074 0.336074 0.635469
rclavicle -4.93545e-015 3.18055e-014
rhumerus -38.5224 10.141 -91.967
rradius 28.5545
rwrist -24.0761
rhand -21.2749 -41.8032
rfingers 7.12502
rthumb 5.10895 -71.7216
lclavicle -4.93545e-015 3.18055e-014
lhumerus -40.8819 -32.9929 93.7499
lradius 75.7098
lwrist 63.2315
lhand -36.1904 16.2587
lfingers 7.12502
lthumb -9.29354 46.0338
rfemur -56.3434 17.7349 5.76494
rtibia 60.0615
rfoot -16.9521 -16.7762
rtoes -9.41536
lfemur -30.2423 3.88567 -34.6711
ltibia 24.9348
lfoot -13.954 -17.7835
ltoes 7.17761
1944
root 11.4098 15.4211 4.22851 19.1656 -15.1863 4.15352
lowerback -14.0958 -0.53897 -8.79389
upperback -6.87101 0.374137 -2.56833
thorax 0.552241 0.322625 2.30322
lowerneck -25.9997 0.763879 1.41051
upperneck 18.4974 -0.0579523 2.32347
head 10.1737 0.374946 0.594248
rclavicle 3.27249e-014 5.96354e-014
rhumerus -39.227 8.99797 -91.4301
rradius 26.091
rwrist -20.6268
rhand -20.5517 -41.043
rfingers 7.12502
rthumb 5.80716 -70.9434
lclavicle 3.27249e-014 5.96354e-014
lhumerus -41.1283 -32.7759 93.915
lradius 75.6558
lwrist 63.4101
lhand -36.2523 16.2998
lfingers 7.12502
lthumb -9.35322 46.0723
rfemur -56.9624 18.3007 5.26485
rtibia 58.6121
rfoot -16.6184 -16.7474
rtoes -9.01082
lfemur -29.8573 3.76088 -34.5119
ltibia 24.593
lfoot -14.0212 -17.8347
ltoes 7.11604
1945
root 11.3946 15.4298 4.27838 19.1941 -14.9396 4.08986
lowerback -14.1014 -0.646716 -8.83841
upperback -6.8455 0.237926 -2.38433
thorax 0.59421 0.257079 2.50236
lowerneck -25.9691 0.828742 1.42898
upperneck 18.4137 0.070024 2.15021
head 10.1366 0.411899 0.548805
rclavicle 9.02529e-015 1.03368e-014
rhumerus -39.9388 7.64363 -90.636
rradius 23.8064
rwrist -17.0106
rhand -19.7298 -40.0138
rfingers 7.12502
rthumb 6.6007 -69.8909
lclavicle 9.02529e-015 1.03368e-014
lhumerus -41.3904 -32.5564 94.0984
lradius 75.6153
lwrist 63.6061
lhand -36.3182 16.3147
lfingers 7.12502
lthumb -9.41686 46.0843
rfemur -57.5201 18.8516 4.75588
rtibia 57.1615
rfoot -16.2592 -16.4742
rtoes -8.72791
lfemur -29.4225 3.67012 -34.3693
ltibia 24.2103
lfoot -14.0621 -17.9395
ltoes 7.17224
1946
root 11.3789 15.4378 4.32859 19.2023 -14.6923 4.04239
lowerback -14.0906 -0.753455 -8.89948
upperback -6.82433 0.102793 -2.20051
thorax 0.623403 0.192945 2.71058
lowerneck -25.9139 0.892606 1.46071
upperneck 18.3242 0.196108 1.96018
head 10.0935 0.446796 0.494766
rclavicle -1.02545e-014 1.19271e-014
rhumerus -40.704 6.10464 -89.5872
rradius 21.7891
rwrist -13.4269
rhand -18.8769 -38.8238
rfingers 7.12502
rthumb 7.42395 -68.6735
lclavicle -1.02545e-014 1.19271e-014
lhumerus -41.6752 -32.3429 94.3016
lradius 75.5806
lwrist 63.8149
lhand -36.414 16.1802
lfingers 7.12502
lthumb -9.50923 45.9456
rfemur -58.0307 19.384 4.23778
rtibia 55.7238
rfoot -15.8755 -15.9624
rtoes -8.53873
lfemur -28.9547 3.60587 -34.2437
ltibia 23.7989
lfoot -14.0814 -18.0881
ltoes 7.3205
1947
root 11.3629 15.4451 4.37913 19.1852 -14.4314 4.01254
lowerback -14.0611 -0.86327 -8.96935
upperback -6.80364 -0.0374648 -2.02127
thorax 0.643565 0.126666 2.91817
lowerneck -25.8267 0.955892 1.49928
upperneck 18.222 0.319692 1.76919
head 10.0407 0.480848 0.438656
rclavicle -2.48139e-014 1.27222e-014
rhumerus -41.5586 4.47851 -88.3422
rradius 20.1282
rwrist -10.0955
rhand -18.0106 -37.6728
rfingers 7.12502
rthumb 8.26008 -67.4913
lclavicle -2.48139e-014 1.27222e-014
lhumerus -41.9774 -32.136 94.5134
lradius 75.5512
lwrist 64.0267
lhand -36.5358 15.9581
lfingers 7.12502
lthumb -9.62679 45.7182
rfemur -58.4838 19.8948 3.71679
rtibia 54.31
rfoot -15.4673 -15.248
rtoes -8.44233
lfemur -28.4511 3.55996 -34.1338
ltibia 23.3655
lfoot -14.0811 -18.282
ltoes 7.5535
1948
root 11.3468 15.4514 4.42949 19.1668 -14.1717 3.99223
lowerback -14.0293 -0.97057 -9.03449
upperback -6.79103 -0.175812 -1.85049
thorax 0.65491 0.0615575 3.11457
lowerneck -25.7124 1.02045 1.54949
upperneck 18.1072 0.440691 1.57991
head 9.97934 0.514795 0.380686
rclavicle 1.41937e-014 -1.66979e-014
rhumerus -42.5389 2.93208 -87.0247
rradius 18.8825
rwrist -7.205
rhand -17.1827 -36.634
rfingers 7.12502
rthumb 9.05907 -66.4195
lclavicle 1.41937e-014 -1.66979e-014
lhumerus -42.2946 -31.9418 94.728
lradius 75.5246
lwrist 64.2365
lhand -36.6647 15.7343
lfingers 7.12502
lthumb -9.75117 45.4885
rfemur -58.9156 20.3895 3.18765
rtibia 52.9314
rfoot -15.0319 -14.361
rtoes -8.39705
lfemur -27.9443 3.5273 -34.0356
ltibia 22.9171
lfoot -14.0571 -18.5031
ltoes 7.85264
1949
root 11.3307 15.4575 4.47963 19.1524 -13.9008 3.97946
lowerback -14.0126 -1.07816 -9.08523
upperback -6.77217 -0.313931 -1.693
thorax 0.682221 -0.00484393 3.28902
lowerneck -25.631 1.08633 1.60759
upperneck 18.0054 0.55563 1.40504
head 9.92878 0.548801 0.325976
rclavicle 1.96447e-014 1.63003e-014
rhumerus -43.6248 1.61585 -85.7725
rradius 18.0723
rwrist -4.8039
rhand -16.2909 -35.8676
rfingers 7.12502
rthumb 9.91949 -65.6139
lclavicle 1.96447e-014 1.63003e-014
lhumerus -42.5845 -31.7784 94.9193
lradius 75.4909
lwrist 64.4443
lhand -36.8046 15.5302
lfingers 7.12502
lthumb -9.88611 45.2781
rfemur -59.3248 20.8713 2.64837
rtibia 51.5984
rfoot -14.5762 -13.3556
rtoes -8.40218
lfemur -27.4378 3.50228 -33.9452
ltibia 22.4545
lfoot -14.0072 -18.7603
ltoes 8.23031
1950
root 11.3144 15.4635 4.52943 19.1469 -13.6225 3.97128
lowerback -14.0082 -1.18492 -9.12035
upperback -6.75594 -0.451518 -1.54948
thorax 0.714273 -0.0717591 3.44004
lowerneck -25.5502 1.15459 1.68094
upperneck 17.8992 0.665314 1.24087
head 9.87726 0.582971 0.271815
rclavicle 3.13241e-014 1.35174e-014
rhumerus -44.8239 0.670967 -84.7323
rradius 17.6662
rwrist -2.85828
rhand -15.3118 -35.2996
rfingers 7.12502
rthumb 10.864 -64.9986
lclavicle 3.13241e-014 1.35174e-014
lhumerus -42.8681 -31.6437 95.0949
lradius 75.4545
lwrist 64.6427
lhand -36.9061 15.5388
lfingers 7.12502
lthumb -9.98402 45.282
rfemur -59.7205 21.3511 2.09683
rtibia 50.3244
rfoot -14.0987 -12.2896
rtoes -8.44145
lfemur -26.9378 3.47819 -33.8561
ltibia 21.9794
lfoot -13.9279 -19.0436
ltoes 8.69255
